<svg width="745" height="159" viewBox="0 0 745 159" fill="none" xmlns="http://www.w3.org/2000/svg">
<g clip-path="url(#clip0_8405_153614)">
<path d="M44.2286 78.9031C43.8895 85.2612 48.4821 90.7278 54.4623 91.0919C54.6731 91.1032 54.8821 91.1108 55.0881 91.1108C60.8409 91.1108 65.6045 86.3256 65.9323 80.2136C66.2725 73.8561 61.6828 68.3889 55.6979 68.028C49.6785 67.6545 44.5694 72.5728 44.2286 78.9031Z" fill="white"/>
<path d="M3.7115 75.9528C1.77589 75.8348 0.113996 77.409 0.00652839 79.4678C-0.105686 81.5247 1.37512 83.2914 3.31131 83.4081C5.2487 83.5249 6.91 81.95 7.02103 79.8931C7.1285 77.8318 5.64889 76.0695 3.7115 75.9528Z" fill="white"/>
<path d="M43.5387 11.8897C45.27 10.9628 45.9688 8.71726 45.0954 6.87485C44.2203 5.0356 42.1095 4.29297 40.3746 5.22238C38.6438 6.14924 37.9468 8.39482 38.8202 10.2353C39.6936 12.0777 41.8043 12.8165 43.5387 11.8897Z" fill="white"/>
<path d="M54.5645 32.3218C57.244 30.8889 58.3205 27.4193 56.9709 24.5743C55.6213 21.7293 52.3557 20.5842 49.678 22.0171C47.0008 23.4506 45.9225 26.9202 47.2733 29.7658C48.6229 32.612 51.8867 33.7578 54.5645 32.3218Z" fill="white"/>
<path d="M17.4644 46.3706C19.5307 47.8104 22.3022 47.199 23.6572 45.0027C25.0103 42.8095 24.4344 39.8636 22.3693 38.4256C20.3019 36.9858 17.5321 37.5985 16.1772 39.7935C14.8222 41.9874 15.4 44.9333 17.4644 46.3706Z" fill="white"/>
<path d="M24.0704 73.8725C21.0779 73.6908 18.5129 76.1232 18.3402 79.305C18.1697 82.4882 20.4598 85.212 23.4529 85.3956C26.4477 85.5761 29.0151 83.1431 29.1843 79.9612C29.3541 76.7781 27.0652 74.0517 24.0704 73.8725Z" fill="white"/>
<path d="M18.0576 112.643C15.853 113.823 14.9665 116.681 16.0786 119.024C17.1889 121.368 19.8792 122.309 22.0825 121.129C24.2877 119.946 25.1754 117.09 24.0627 114.745C22.9524 112.404 20.2645 111.46 18.0576 112.643Z" fill="white"/>
<path d="M39.1497 61.9532C42.1006 64.0101 46.0615 63.135 47.9941 59.9979C49.9297 56.8652 49.1062 52.6561 46.1559 50.6024C43.2056 48.5442 39.2465 49.4206 37.3121 52.5533C35.3759 55.6904 36.2 59.8976 39.1497 61.9532Z" fill="white"/>
<path d="M106.077 31.8631C108.585 33.6102 111.95 32.8657 113.594 30.1999C115.24 27.5373 114.542 23.9604 112.033 22.2114C109.527 20.463 106.159 21.2057 104.515 23.8734C102.87 26.536 103.571 30.1147 106.077 31.8631Z" fill="white"/>
<path d="M117.217 11.4979C118.837 12.6291 121.017 12.1464 122.081 10.4233C123.144 8.69832 122.691 6.38462 121.069 5.2533C119.449 4.12137 117.27 4.60467 116.204 6.3272C115.139 8.05285 115.594 10.3659 117.217 11.4979Z" fill="white"/>
<path d="M106.931 67.9094C100.913 67.5378 95.8 72.4548 95.4627 78.7826C95.1225 85.142 99.7128 90.6092 105.695 90.9714C105.903 90.9833 106.113 90.9897 106.321 90.9897C112.073 90.9897 116.836 86.2051 117.163 80.0975C117.329 77.0153 116.354 74.0504 114.421 71.7513C112.491 69.447 109.829 68.0835 106.931 67.9094Z" fill="white"/>
<path d="M58.1352 61.1538C59.9925 65.0714 63.7135 67.5081 67.8489 67.5081C69.5298 67.5081 71.2196 67.0791 72.7312 66.2708C78.0832 63.4044 80.2433 56.445 77.5465 50.7576C75.6869 46.8369 71.9671 44.4033 67.8329 44.4033C66.152 44.4033 64.4622 44.8323 62.9505 45.6387C57.5991 48.5051 55.4385 55.4632 58.1352 61.1538Z" fill="white"/>
<path d="M143.336 46.3586C145.539 45.1774 146.429 42.3205 145.316 39.9746C144.204 37.6306 141.516 36.6899 139.311 37.871C137.105 39.0509 136.217 41.9091 137.33 44.2525C138.443 46.5952 141.129 47.5372 143.336 46.3586Z" fill="white"/>
<path d="M115.771 50.0377C112.618 51.7242 111.353 55.8065 112.94 59.1543C114.528 62.5028 118.368 63.8473 121.519 62.1621C124.669 60.4743 125.937 56.392 124.351 53.0435C122.762 49.6963 118.92 48.3486 115.771 50.0377Z" fill="white"/>
<path d="M80.289 9.75704C82.7543 9.90596 84.8668 7.90393 85.0075 5.28168C85.147 2.6626 83.2625 0.416449 80.7973 0.268146C78.3309 0.119227 76.2171 2.12253 76.077 4.7435C75.9381 7.36324 77.822 9.60816 80.289 9.75704Z" fill="white"/>
<path d="M80.238 39.6553C83.76 39.868 86.7787 37.0054 86.9793 33.2619C87.1794 29.5185 84.4856 26.3088 80.9617 26.0974C77.4414 25.8848 74.4234 28.7462 74.2221 32.4909C74.0221 36.2331 76.7159 39.4408 80.238 39.6553Z" fill="white"/>
<path d="M45.6227 108.964C48.7749 107.276 50.0419 103.194 48.456 99.8463C46.8672 96.4991 43.025 95.1502 39.8758 96.8398C36.7254 98.5264 35.4578 102.605 37.0449 105.955C38.6331 109.302 42.4729 110.649 45.6227 108.964Z" fill="white"/>
<path d="M84.368 49.5607C81.081 54.8865 82.4841 62.0599 87.4953 65.5528C89.2723 66.7913 91.3297 67.4463 93.4469 67.4463C97.1299 67.4463 100.527 65.4967 102.546 62.2296C105.831 56.9024 104.428 49.7266 99.417 46.2374C97.64 44.9989 95.5833 44.3427 93.466 44.3427C89.7836 44.3427 86.3844 46.2936 84.368 49.5607Z" fill="white"/>
<path d="M103.261 97.8474C101.402 93.9254 97.6792 91.4912 93.5473 91.4912C91.8646 91.4912 90.1743 91.9171 88.6626 92.7285C86.0709 94.1166 84.1436 96.4947 83.2346 99.4267C82.3232 102.355 82.5411 105.484 83.8497 108.242C85.7069 112.161 89.4285 114.596 93.5592 114.596C95.2436 114.596 96.9317 114.169 98.4463 113.359C103.798 110.494 105.958 103.534 103.261 97.8474Z" fill="white"/>
<path d="M122.244 97.0449C119.296 94.9911 115.333 95.8663 113.399 98.9989C111.464 102.134 112.289 106.344 115.238 108.399C118.189 110.454 122.147 109.581 124.083 106.444C126.018 103.31 125.196 99.1005 122.244 97.0449Z" fill="white"/>
<path d="M143.052 79.6956C143.225 76.5137 140.933 73.7855 137.937 73.6038C134.945 73.4233 132.38 75.855 132.208 79.04C132.037 82.22 134.327 84.947 137.323 85.1287C140.315 85.3104 142.883 82.8743 143.052 79.6956Z" fill="white"/>
<path d="M158.083 75.5906C156.143 75.4751 154.486 77.0475 154.373 79.1069C154.264 81.1651 155.744 82.9311 157.684 83.0472C159.62 83.164 161.28 81.5903 161.39 79.5309C161.502 77.4715 160.02 75.7067 158.083 75.5906Z" fill="white"/>
<path d="M143.93 112.627C141.863 111.187 139.09 111.8 137.739 113.995C136.384 116.189 136.96 119.136 139.026 120.575C141.09 122.014 143.861 121.402 145.218 119.206C146.57 117.009 145.996 114.067 143.93 112.627Z" fill="white"/>
<path d="M44.1787 147.502C42.5566 146.37 40.3782 146.852 39.3142 148.576C38.2496 150.302 38.702 152.615 40.3253 153.746C41.9474 154.878 44.1259 154.394 45.1881 152.672C46.2538 150.945 45.8008 148.632 44.1787 147.502Z" fill="white"/>
<path d="M117.855 147.11C116.124 148.035 115.427 150.28 116.301 152.124C117.172 153.963 119.284 154.704 121.019 153.775C122.75 152.847 123.449 150.604 122.575 148.763C121.703 146.922 119.589 146.182 117.855 147.11Z" fill="white"/>
<path d="M77.0276 109.436C78.6188 106.856 79.1716 103.772 78.5802 100.753C77.9883 97.7339 76.3264 95.1381 73.8986 93.4466C72.1215 92.208 70.0624 91.5518 67.9445 91.5518C64.2651 91.5518 60.8641 93.5014 58.8477 96.7704C57.2559 99.3504 56.7043 102.435 57.2975 105.455C57.8871 108.474 59.5507 111.07 61.978 112.761C63.7556 114 65.813 114.654 67.9302 114.654C71.6109 114.654 75.0106 112.704 77.0276 109.436Z" fill="white"/>
<path d="M55.3162 127.137C52.8088 125.389 49.444 126.133 47.7988 128.797C46.1535 131.463 46.8529 135.038 49.3609 136.787C51.8689 138.534 55.236 137.791 56.8801 135.126C58.5259 132.46 57.8229 128.884 55.3162 127.137Z" fill="white"/>
<path d="M80.6465 149.241C78.1812 149.092 76.0681 151.095 75.9274 153.715C75.7867 156.337 77.6706 158.581 80.1376 158.732C82.6028 158.879 84.7178 156.876 84.8567 154.255C84.9956 151.636 83.1117 149.389 80.6465 149.241Z" fill="white"/>
<path d="M80.6957 119.344C77.1754 119.133 74.155 121.993 73.9555 125.736C73.7554 129.479 76.4475 132.688 79.9701 132.899C83.4946 133.114 86.5126 130.251 86.7115 126.508C86.914 122.764 84.2196 119.556 80.6957 119.344Z" fill="white"/>
<path d="M106.828 126.675C104.152 128.111 103.074 131.578 104.425 134.426C105.773 137.273 109.038 138.415 111.716 136.981C114.395 135.548 115.47 132.078 114.122 129.232C112.773 126.386 109.509 125.242 106.828 126.675Z" fill="white"/>
<path d="M226.728 52.2176C237.248 52.2176 244.615 58.3669 244.615 69.772H258.399C258.399 49.7563 244.508 40.1393 226.517 40.1393C204.42 40.1393 191.582 52.8877 191.582 79.835C191.582 107.455 204.42 119.531 226.517 119.531C244.721 119.531 258.399 110.138 258.399 90.1221H245.141C245.141 101.304 237.881 107.455 226.728 107.455C212.1 107.455 205.368 98.8431 205.368 80.9537V78.717C205.368 61.1626 212.206 52.2176 226.728 52.2176Z" fill="white"/>
<path d="M294.838 41.4826L266.742 118.189H280.632L286.418 101.529H319.461L325.351 118.189H339.873L311.778 41.4826H294.838ZM290.628 89.4526L297.995 68.43C299.467 64.2934 302.098 55.3465 302.624 53.7824H303.15C303.674 55.3471 306.308 64.4051 307.78 68.43L315.144 89.4526H290.628Z" fill="white"/>
<path d="M415.021 64.7395C415.021 50.5399 407.341 41.482 391.452 41.482H353.362V118.189H366.83V88.5561H389.242L402.92 118.189H417.654L402.185 86.3212C410.709 82.7424 415.021 75.1401 415.021 64.7395ZM390.4 76.4803H366.83V53.6707H390.4C397.66 53.6707 401.448 57.8072 401.448 64.7395C401.448 72.0093 397.345 76.4803 390.4 76.4803Z" fill="white"/>
<path d="M462.277 41.4826H433.446V118.189H462.277C484.059 118.189 497.318 106.114 497.318 79.8363C497.318 53.559 484.059 41.4826 462.277 41.4826ZM483.532 80.9537C483.428 97.727 475.956 106 462.277 106H446.915V53.6714H462.277C475.956 53.6714 483.532 61.9463 483.532 78.7176V80.9537Z" fill="white"/>
<path d="M532.576 41.4826L504.482 118.189H518.37L524.158 101.529H557.199L563.092 118.189H577.613L549.517 41.4826H532.576ZM528.366 89.4526L535.733 68.43C537.207 64.2934 539.836 55.3465 540.364 53.7824H540.888C541.414 55.3471 544.046 64.4051 545.519 68.43L552.884 89.4526H528.366Z" fill="white"/>
<path d="M639.188 87.103C639.188 88.5567 639.397 92.4705 639.397 93.1431L638.872 93.3652C638.557 92.9191 636.452 89.0047 635.293 87.2159L603.938 41.482H591.1V118.189H604.044V72.2314C604.044 70.3316 603.831 66.6418 603.831 66.0828L604.359 65.7477C604.675 66.1939 606.252 69.4382 607.934 72.01L639.502 118.19H652.13V41.4826H639.187L639.188 87.103Z" fill="white"/>
<path d="M705.773 40.1399C683.15 40.1399 669.47 52.8883 669.47 79.8357C669.47 106.783 683.15 119.531 705.773 119.531C728.395 119.531 742.18 106.783 742.18 79.8357C742.18 52.8883 728.396 40.1399 705.773 40.1399ZM728.396 81.0648C728.396 98.6217 720.504 107.455 705.773 107.455C691.147 107.455 683.257 98.621 683.257 81.0648V78.717C683.257 61.1626 691.253 52.2176 705.773 52.2176C720.399 52.2176 728.396 61.1626 728.396 78.717V81.0648Z" fill="white"/>
</g>
<defs>
<clipPath id="clip0_8405_153614">
<rect width="742.18" height="159" fill="white"/>
</clipPath>
</defs>
</svg>
